<svg width="143" height="42" viewBox="0 0 143 42" fill="none" xmlns="http://www.w3.org/2000/svg">
<g clip-path="url(#clip0)">
<path d="M23.6301 4.20001H13.8732V37.8H23.6301V4.20001Z" fill="#0009D9"/>
<path d="M40.7047 4.20001H30.9478V37.8H40.7047V4.20001Z" fill="#0009D9"/>
<path d="M13.8732 37.8H23.6301L40.7047 4.20001H30.9478L13.8732 37.8Z" fill="#442AF4"/>
<path d="M30.9478 37.8H40.7047L57.7793 4.20001H48.0224L30.9478 37.8Z" fill="#442AF4"/>
<path d="M128.517 4.20001H118.76V37.8H128.517V4.20001Z" fill="#0009D9"/>
<path d="M111.442 4.20001H101.686V37.8H111.442V4.20001Z" fill="#0009D9"/>
<path d="M128.517 4.20001H118.76L101.686 37.8H111.442L128.517 4.20001Z" fill="#442AF4"/>
<path d="M111.442 4.20001H101.685L84.6108 37.8H94.3678L111.442 4.20001Z" fill="#442AF4"/>
<path d="M69.9756 4.20001H57.7794V37.8H69.9756C74.504 37.8 78.8471 36.03 82.0492 32.8794C85.2513 29.7288 87.0502 25.4556 87.0502 21C87.0502 16.5444 85.2513 12.2712 82.0492 9.1206C78.8471 5.96999 74.504 4.20001 69.9756 4.20001ZM69.9756 28.2H67.5363V13.8H69.9756C71.9164 13.8 73.7776 14.5586 75.15 15.9088C76.5223 17.2591 77.2933 19.0905 77.2933 21C77.2933 22.9096 76.5223 24.7409 75.15 26.0912C73.7776 27.4414 71.9164 28.2 69.9756 28.2Z" fill="#F42ABB"/>
</g>
<defs>
<clipPath id="clip0">
<rect x="13.8732" y="4.20001" width="114.644" height="33.6" fill="white"/>
</clipPath>
</defs>
</svg>
